<svg width="109" height="106" viewBox="0 0 109 106" fill="none" xmlns="http://www.w3.org/2000/svg">
<path d="M62.8163 51.4711C62.7737 52.7271 62.7372 53.9832 62.6414 55.2378C62.5304 56.6855 62.0681 58.0009 61.4568 59.2919C60.9352 60.3929 60.6599 61.573 60.3619 62.7515C60.1672 63.5225 59.9711 64.295 59.8312 65.0781C59.5894 66.2771 59.732 67.5218 60.2387 68.635C60.3451 68.8631 60.5915 68.9087 60.7785 69.0213C61.6841 69.5473 62.6182 70.0225 63.5766 70.4446C63.9078 70.5852 64.2646 70.6551 64.6243 70.6499C65.4486 70.6499 66.0538 71.1061 66.6788 71.5395C66.7158 71.566 66.7469 71.5998 66.7705 71.6388C66.794 71.6777 66.8094 71.721 66.8156 71.7661C66.8368 71.8887 66.8758 72.0075 66.9312 72.1189C67.2354 72.6922 66.989 73.048 66.5146 73.3902C65.8226 73.889 65.1748 74.4547 64.4981 74.9747C64.1012 75.2789 63.6025 75.3853 63.1523 75.583C62.5441 75.8491 61.916 76.059 61.3275 76.3433C60.8789 76.5543 60.3892 76.6634 59.8935 76.6627C59.0419 76.6825 58.2573 76.944 57.4604 77.1736C57.2791 77.2384 57.0887 77.2743 56.8962 77.2801C56.288 77.2664 55.6919 77.4458 55.0957 77.3516C54.5681 77.2694 54.0313 77.3424 53.5112 77.2436C53.2537 77.2083 52.9917 77.2296 52.7433 77.3059C52.4224 77.3911 52.0939 77.3394 51.7715 77.4169C51.4492 77.4945 51.1526 77.3592 50.8454 77.2938C49.2822 76.9744 47.7615 76.5684 46.2408 76.1228C45.8561 76.0103 45.5504 75.7412 45.2007 75.5587C44.787 75.3443 44.3962 75.0812 43.9735 74.8881C43.0611 74.4714 42.287 73.8601 41.5526 73.1879C41.4081 73.0556 41.3746 72.9659 41.4917 72.7926C41.7305 72.4458 41.9479 72.0809 42.1639 71.7281C42.2174 71.6415 42.2877 71.5665 42.3707 71.5076C43.2016 70.903 44.0905 70.3824 45.0243 69.9534C45.4698 69.7512 45.9732 69.7451 46.4476 69.6493C47.1167 69.5064 47.6809 69.1262 48.2922 68.857C48.348 68.8195 48.3919 68.7667 48.4184 68.705C48.9386 67.7602 49.3138 66.7427 49.5316 65.6864C49.635 65.2089 49.3643 64.7862 49.2548 64.3421C49.0465 63.4981 48.6268 62.7332 48.3105 61.9288C48.131 61.4726 48.0307 60.986 47.8968 60.513C47.687 59.7634 47.322 59.0745 47.0468 58.3491C46.6187 57.2868 46.3275 56.1744 46.18 55.0386C46.0583 53.9528 45.9793 52.8549 45.7238 51.7858C45.555 51.0985 45.7238 50.4172 45.8759 49.7588C46.1678 48.4708 46.4339 47.1736 46.8019 45.9054C46.8399 45.751 46.9145 45.6081 47.0194 45.4887C47.7387 44.6949 48.4519 43.8965 49.1681 43.0997C49.2343 43.0067 49.3233 42.9323 49.4266 42.8838C50.6021 42.4595 51.7426 41.9257 52.9592 41.6277C53.534 41.4878 54.1332 41.3372 54.7293 41.3768C55.2657 41.4355 55.7966 41.5372 56.3169 41.6809C56.9814 41.833 57.6429 42.0109 58.3029 42.1888C58.6283 42.277 58.8321 42.5599 59.0997 42.7439C59.8707 43.2715 60.482 43.9756 61.1329 44.6356C61.1874 44.6929 61.2298 44.7607 61.2576 44.8348C61.9008 46.5441 62.4741 48.2776 62.8117 50.0766C62.8862 50.5237 62.8163 51.0042 62.8163 51.4711Z" fill="#00A27A"/>
<path d="M32.8192 55.3958C32.7706 57.6176 33.283 59.6264 34.0784 61.5789C34.878 63.5043 35.8796 65.3394 37.0665 67.0534C37.6474 67.9065 37.3828 69.0637 36.1009 69.2827C35.8807 69.3164 35.6556 69.2852 35.4528 69.1932C35.25 69.1011 35.0784 68.952 34.9588 68.7642C33.207 66.1942 31.7091 63.495 30.8302 60.4886C30.5665 59.5517 30.3633 58.5988 30.2219 57.6358C30.0866 56.6591 30.0458 55.6717 30.1003 54.6872C30.1741 52.8667 30.5243 51.0679 31.1389 49.3527C31.9631 47.0407 33.1499 44.8745 34.6547 42.9354C36.666 40.2576 39.061 37.8908 41.7624 35.9113C44.4008 34.0044 47.2961 32.6769 50.523 32.1461C51.9712 31.901 53.4431 31.8265 54.9087 31.9241C57.0682 32.0714 59.1978 32.5109 61.2393 33.2304C63.1944 33.9161 65.0664 34.819 66.8202 35.922C68.0308 36.676 69.1832 37.5199 70.2676 38.4463C72.0576 39.9575 73.5835 41.7562 74.7825 43.7687C75.8264 45.5765 76.5469 47.5526 76.9114 49.6081C77.0916 50.6296 77.2154 51.6601 77.2825 52.6951C77.5123 55.1851 77.3781 57.6952 76.8841 60.1465C76.4249 62.3859 75.6926 64.5606 74.7034 66.6215C74.4221 67.2055 74.1058 67.7757 73.7773 68.3353C73.6209 68.6158 73.3696 68.8312 73.0685 68.9427C72.7673 69.0542 72.4363 69.0546 72.135 68.9436C71.8594 68.8413 71.624 68.6529 71.4638 68.4064C71.3036 68.16 71.227 67.8684 71.2454 67.575C71.2888 67.2959 71.3926 67.0297 71.5495 66.7949C72.5209 65.0926 73.2798 63.2775 73.8092 61.3904C74.1305 60.2589 74.3698 59.1058 74.5255 57.9399C74.6965 56.5881 74.7408 55.2231 74.6578 53.863C74.6076 52.8974 74.5224 51.9317 74.3917 50.9737C74.0176 48.2502 73.1036 45.735 71.3974 43.5467C70.2814 42.1303 68.9954 40.8565 67.5684 39.7541C65.9969 38.5222 64.2867 37.4785 62.4725 36.6443C60.8519 35.8806 59.142 35.3228 57.3828 34.9837C56.432 34.8117 55.4717 34.6965 54.5072 34.6385C52.5447 34.5131 50.576 34.7533 48.7012 35.3472C45.9868 36.2003 43.6419 37.7042 41.5039 39.5564C40.666 40.2773 39.8665 41.0418 39.1088 41.8466C37.5714 43.4965 36.1632 45.2499 35.0683 47.2328C34.2472 48.687 33.6282 50.2464 33.2283 51.8679C32.9369 53.0207 32.7993 54.207 32.8192 55.3958Z" fill="#00A27A"/>
<path d="M63.753 7.39689C64.6442 9.73874 64.4449 13.6575 63.823 15.1159C62.2324 18.8355 60.4775 21.0648 55.4775 21.8738C52.4209 22.3695 47.8285 21.2488 45.184 17.5763C42.7114 14.1411 42.6095 10.8321 44.1302 6.87073C44.8905 5.55382 45.7938 4.27189 46.8674 3.23022C47.5806 2.79074 50.4136 0.188855 54.4875 0.573588C59.521 1.05716 62.0179 2.83636 63.753 7.39689Z" fill="#00A27A"/>
<path d="M21.315 62.5402C22.2046 64.8821 22.0069 68.8009 21.385 70.2592C19.7943 73.9788 18.0394 76.2081 13.0394 77.0171C9.98287 77.5128 5.39041 76.3936 2.74595 72.7196C0.273317 69.2844 0.169911 65.9754 1.69059 62.014C2.45093 60.6971 3.35422 59.4167 4.42782 58.3735C5.14102 57.9341 7.97405 55.3322 12.048 55.7169C17.0829 56.199 19.5799 57.9797 21.315 62.5402Z" fill="#00A27A"/>
<path d="M20.119 40.2409C17.6159 40.3762 13.9435 38.9955 12.7452 37.9599C9.68403 35.3139 8.09492 32.9629 8.84462 27.9538C9.30082 24.8911 11.7674 20.8583 16.0694 19.4562C20.0901 18.153 23.2835 19.0532 26.5895 21.7083C27.6114 22.8382 28.5587 24.0821 29.2263 25.4218C29.427 26.2354 31.0511 29.7269 29.4377 33.4891C27.4471 38.1393 24.9912 39.9763 20.119 40.2409Z" fill="#00A27A"/>
<path d="M89.5119 39.2411C87.0088 39.3764 83.3364 37.9956 82.1381 36.9601C79.077 34.3141 77.4878 31.9631 78.2391 26.954C78.6953 23.8913 81.1603 19.8585 85.4638 18.4564C89.4875 17.1456 92.6718 18.0534 95.9824 20.7085C97.0043 21.8384 97.9517 23.0823 98.6192 24.422C98.82 25.2356 100.444 28.7271 98.8306 32.4893C96.84 37.1395 94.3841 38.9765 89.5119 39.2411Z" fill="#00A27A"/>
<path d="M38.2974 104.64C35.7944 104.776 32.1219 103.395 30.9221 102.359C27.8625 99.7135 26.2734 97.364 27.0231 92.3549C27.4793 89.2922 29.9458 85.2579 34.2478 83.8573C38.2731 82.5465 41.4559 83.4543 44.7679 86.1079C45.7898 87.2393 46.7372 88.4832 47.4033 89.823C47.6055 90.6365 49.2281 94.128 47.6162 97.8902C45.6256 102.539 43.1682 104.376 38.2974 104.64Z" fill="#00A27A"/>
<path d="M76.1116 105.641C73.6085 105.776 69.9361 104.395 68.7378 103.36C65.6827 100.717 64.0875 98.3626 64.8387 93.3534C65.2949 90.2908 67.76 86.2564 72.0635 84.8559C76.0872 83.545 79.2715 84.4529 82.5821 87.1065C83.604 88.2379 84.5589 89.4818 85.2189 90.8215C85.4196 91.6351 87.0437 95.1265 85.4303 98.8887C83.4397 103.539 80.9838 105.376 76.1116 105.641Z" fill="#00A27A"/>
<path d="M107.844 67.4703C106.831 69.7635 103.938 72.411 102.47 73.0102C98.7247 74.54 95.9084 74.8913 91.7843 71.9457C89.2615 70.1498 86.7813 66.1261 87.4808 61.6553C88.1362 57.4734 90.3884 55.0464 94.2539 53.2915C95.7259 52.8916 97.2649 52.6118 98.7597 52.6239C99.5763 52.814 103.424 52.9493 106.048 56.0911C109.292 59.9855 109.817 63.0071 107.844 67.4703Z" fill="#00A27A"/>
<path d="M100.697 63.2598C98.9513 63.5883 97.6359 64.344 96.4726 66.6722C96.2992 66.7224 96.0635 66.7969 95.8293 66.6038C96.2019 65.0268 96.8102 62.6241 96.2992 60.7765C96.2926 60.754 96.2941 60.7299 96.3036 60.7085C96.313 60.687 96.3298 60.6696 96.3509 60.6594C97.5127 60.1044 98.5362 59.6832 98.9878 58.6141C99.3497 57.7564 98.965 57.32 98.8464 57.139C98.5133 56.6235 96.6049 56.1248 96.2384 56.1248C95.5328 56.1248 94.774 57.5694 94.6402 57.9496C94.4166 58.5837 94.6037 59.9189 94.4181 60.4009C94.2326 60.883 92.9857 63.7936 92.8564 64.4505C92.531 66.1126 92.2633 68.8726 92.7454 69.2817C93.2275 69.6908 97.902 69.633 98.8281 69.633C99.7542 69.633 104.967 68.9471 104.967 66.7923C104.967 64.6375 102.485 62.9222 100.697 63.2598Z" fill="#87D3BF"/>
<path d="M18.6724 31.0719C19.4076 30.9043 20.2781 30.3748 20.8323 29.8948C20.8535 29.8095 20.8849 29.727 20.9257 29.6491C20.9866 28.7424 20.7142 27.7044 20.3942 26.8587C20.3339 26.7799 20.2899 26.6899 20.2647 26.5939C19.4811 26.2999 18.6362 26.2076 17.8076 26.3253C17.7614 26.3866 17.7062 26.4406 17.6438 26.4853C17.1505 27.2091 16.5696 28.2339 16.4534 29.0281C16.4914 29.1308 16.5468 29.2262 16.6172 29.31C16.6425 29.3306 16.6595 29.3597 16.6648 29.3919C17.1371 29.9873 17.6904 30.5137 18.3086 30.9557C18.3741 30.9459 18.4409 30.9513 18.504 30.9715C18.5671 30.9916 18.6247 31.026 18.6724 31.0719Z" fill="#88D4C0"/>
<path d="M24.8436 25.7559C24.3277 24.8248 23.5746 24.0467 22.6608 23.5007C21.5479 22.8416 20.2838 22.4804 18.9907 22.452C17.6975 22.4236 16.4188 22.7291 15.2781 23.3388C13.1829 24.5045 12.0267 26.6169 12.0115 29.2835C11.94 30.466 12.2041 31.6446 12.7734 32.6834C13.3084 33.6352 14.0724 34.4385 14.9962 35.0205C16.0621 35.6964 17.2798 36.0958 18.539 36.1824C18.7161 36.1957 18.8932 36.2015 19.0685 36.2015C20.1492 36.2107 21.216 35.9571 22.177 35.4624C23.1728 34.9417 24.0004 34.1491 24.5636 33.1767C25.2017 32.0891 25.5522 30.7616 25.6055 29.234C25.6737 28.0268 25.4102 26.824 24.8436 25.7559ZM25.1731 29.2149C25.1731 29.2511 25.1731 29.2873 25.1731 29.3235C25.1079 29.2817 25.0383 29.2472 24.9655 29.2206C24.9311 29.2485 24.8914 29.2692 24.8489 29.2816C24.8064 29.294 24.7619 29.2979 24.7179 29.293C24.0398 29.5673 23.1941 29.9825 22.6894 30.5158C22.6802 30.6074 22.6406 30.6932 22.577 30.7596L22.6341 30.7863C22.6685 31.542 22.7641 32.2936 22.9198 33.0339C23.017 33.0339 23.097 33.0339 23.097 33.1234C23.0935 33.1711 23.0852 33.2183 23.0722 33.2644C23.3553 33.3237 23.6439 33.3524 23.9331 33.3501C23.4286 34.0699 22.7583 34.6579 21.9789 35.0643C21.2951 35.4183 20.5507 35.6399 19.7847 35.7177C19.7847 35.6891 19.7999 35.6624 19.8094 35.6358H19.7466C19.6323 35.6186 19.6266 35.4205 19.7047 35.2548C19.3338 34.6862 18.8769 34.1786 18.3504 33.7501C18.3504 33.731 18.3504 33.7139 18.3504 33.6948L18.3352 33.7406C18.3223 33.7676 18.3021 33.7904 18.2768 33.8064C18.2515 33.8224 18.2222 33.8309 18.1923 33.8309C18.1624 33.8309 18.1331 33.8224 18.1078 33.8064C18.0825 33.7904 18.0623 33.7676 18.0494 33.7406C18.0494 33.7406 18.0494 33.7405 18.0494 33.731C17.3743 33.9357 16.745 34.2687 16.1961 34.712C16.2095 34.8129 16.1961 34.9024 16.1161 34.9291C16.0997 34.9371 16.0824 34.9435 16.0647 34.9481C16.0761 35.0034 16.0876 35.0624 16.1009 35.1215C15.7966 34.9839 15.5025 34.8248 15.2209 34.6453C14.3595 34.1022 13.6467 33.3534 13.1467 32.4663C13.08 32.3463 13.0191 32.2244 12.9562 32.1006C13.1467 32.1158 13.3372 32.1215 13.4952 32.1196C13.5186 32.0742 13.5509 32.0339 13.5902 32.0012C13.6294 31.9684 13.6749 31.9439 13.7238 31.9292C14.0647 31.2577 14.3434 30.5563 14.5562 29.834C14.4514 29.813 14.4457 29.5692 14.5048 29.4721C14.0465 28.8651 13.4615 28.3652 12.7905 28.0073C12.7387 28.0052 12.6883 27.9901 12.6438 27.9635C12.6121 27.9192 12.596 27.8656 12.5981 27.8111L12.5848 27.834C12.7146 27.1308 12.9639 26.455 13.3219 25.8359C13.5051 25.5228 13.7182 25.2281 13.9581 24.956C14.0057 25.0836 14.0552 25.2017 14.1009 25.2969C14.1573 25.3456 14.2072 25.4013 14.2495 25.4626C14.5581 25.5312 14.9866 25.4321 15.3371 25.4017C15.7667 25.3901 16.1936 25.3294 16.6095 25.2207C16.6463 25.1248 16.7131 25.0433 16.7999 24.9883C17.0415 24.3536 17.2326 23.7008 17.3714 23.036C18.4141 22.8262 19.4901 22.8477 20.5237 23.0988C20.7677 23.8228 21.0749 24.5239 21.4418 25.194C21.5446 25.2339 21.6375 25.2957 21.7141 25.375C22.372 25.4772 23.0401 25.4958 23.7027 25.4302C23.7233 25.3977 23.7552 25.374 23.7922 25.3636C23.8335 25.3639 23.8746 25.3703 23.9141 25.3826C23.9331 25.3407 23.9503 25.295 23.9674 25.2474C24.8093 26.3007 25.2284 27.6626 25.1731 29.2149Z" fill="#88D4C0"/>
<path d="M26.9201 30.5157H26.8782C26.8497 30.5103 26.8226 30.4992 26.7985 30.4832C26.7743 30.4672 26.7536 30.4465 26.7374 30.4224C26.7213 30.3983 26.7101 30.3713 26.7045 30.3428C26.699 30.3144 26.6991 30.2851 26.7049 30.2567C26.811 29.7036 26.8746 29.1433 26.8954 28.5805C26.8961 28.5517 26.9026 28.5233 26.9144 28.4969C26.9262 28.4706 26.9432 28.4469 26.9643 28.4273C26.9854 28.4076 27.0102 28.3923 27.0373 28.3823C27.0644 28.3723 27.0932 28.3678 27.122 28.3691C27.1803 28.3711 27.2354 28.396 27.2754 28.4385C27.3153 28.481 27.3369 28.5375 27.3354 28.5958C27.3167 29.1814 27.253 29.7647 27.1449 30.3405C27.1345 30.3917 27.1061 30.4375 27.0649 30.4697C27.0237 30.5018 26.9723 30.5181 26.9201 30.5157Z" fill="#88D4C0"/>
<path d="M27.0721 27.8262C27.0191 27.8258 26.968 27.8064 26.9281 27.7714C26.8883 27.7364 26.8623 27.6883 26.855 27.6358C26.7333 26.4475 26.2784 25.3178 25.5426 24.3768C24.8486 23.5174 23.9519 22.8439 22.9332 22.4168C22.884 22.3911 22.8462 22.3479 22.8275 22.2957C22.8087 22.2434 22.8103 22.1861 22.8319 22.135C22.8535 22.0838 22.8935 22.0427 22.944 22.0198C22.9946 21.9968 23.0519 21.9937 23.1046 22.0111C24.1919 22.4674 25.1483 23.1875 25.8874 24.1063C26.678 25.1072 27.1681 26.312 27.3007 27.5805C27.3044 27.6091 27.3024 27.6381 27.2948 27.6659C27.2873 27.6936 27.2742 27.7196 27.2565 27.7423C27.2388 27.765 27.2167 27.7839 27.1916 27.798C27.1665 27.8121 27.1388 27.821 27.1102 27.8243L27.0721 27.8262Z" fill="#88D4C0"/>
<path d="M49.4344 4.14415C49.7599 4.14415 50.0838 4.14415 50.4077 4.14415C50.5598 4.14415 50.6951 4.11373 50.8396 4.10005C50.908 4.09244 50.9779 4.09244 51.0479 4.0894C51.2608 4.07724 51.4752 4.07267 51.6881 4.06963C52.0987 4.06963 52.5093 4.06963 52.9198 4.05899C53.1418 4.05418 53.363 4.03181 53.5813 3.99208C53.7441 3.96471 53.9098 3.95102 54.0756 3.92821C54.2386 3.90386 54.4034 3.89318 54.5683 3.89627C54.7958 3.89347 55.0212 3.93909 55.2298 4.0301C55.307 4.07037 55.3754 4.12549 55.4313 4.1923C55.4871 4.2591 55.5292 4.33628 55.5552 4.41939C55.6267 4.62842 55.6681 4.84653 55.6784 5.0672C55.6917 5.26974 55.6917 5.47293 55.6784 5.67547C55.6677 5.86252 55.6556 6.04804 55.6358 6.23356C55.6206 6.36282 55.6099 6.4936 55.5963 6.62438C55.5826 6.75516 55.5552 6.91331 55.5385 7.05777C55.5217 7.20224 55.5065 7.35279 55.4883 7.49877C55.4624 7.70254 55.4563 7.90784 55.4487 8.10704C55.4487 8.26976 55.4366 8.43247 55.4259 8.59518C55.4107 8.8613 55.4107 9.12742 55.4092 9.39354C55.4151 9.51849 55.4095 9.6437 55.3925 9.76763C55.3859 9.83101 55.3565 9.88984 55.3098 9.93319C55.2631 9.97654 55.2022 10.0015 55.1385 10.0033C55.0581 10.0117 54.9771 10.0117 54.8967 10.0033C54.5789 10.0033 54.2611 9.99421 53.9418 9.98813C53.7425 9.98813 53.5433 9.979 53.3441 9.96532C53.2027 9.95619 53.0613 9.95467 52.9214 9.94099C52.6621 9.92301 52.405 9.99795 52.196 10.1524C52.0439 10.2527 51.8919 10.3348 51.7276 10.423C51.4691 10.5751 51.2091 10.715 50.946 10.8549C50.8162 10.9328 50.6816 11.0023 50.543 11.0633C50.4533 11.0952 50.391 11.0526 50.4138 10.9614C50.4462 10.782 50.4894 10.6048 50.543 10.4306C50.5761 10.3295 50.5935 10.2238 50.5947 10.1174C50.598 10.0813 50.5883 10.0453 50.5674 10.0158C50.5465 9.98621 50.5158 9.96509 50.4807 9.95619C50.3697 9.92583 50.2536 9.91961 50.14 9.93794C49.988 9.95467 49.8359 9.98509 49.6838 9.98813C49.1212 9.99877 48.5585 9.99573 47.9959 10.0064C47.8785 10.0143 47.7606 10.0046 47.6461 9.97748C47.596 9.96798 47.5494 9.94517 47.5112 9.91146C47.4729 9.87775 47.4444 9.83438 47.4287 9.78588C47.4158 9.71715 47.4189 9.64639 47.4378 9.57906C47.4636 9.44677 47.4774 9.31239 47.4789 9.1776C47.4789 8.93734 47.4788 8.69707 47.4712 8.4568C47.4732 8.29305 47.489 8.12976 47.5184 7.96866C47.5315 7.88045 47.5401 7.79163 47.5442 7.70254C47.5655 7.28588 47.561 6.86769 47.5518 6.4495C47.5518 6.12864 47.5427 5.80929 47.5518 5.48843C47.5607 5.24784 47.5886 5.00834 47.6355 4.77219C47.6513 4.66623 47.6727 4.56117 47.6993 4.45741C47.7169 4.38393 47.7582 4.31826 47.8167 4.27047C47.8752 4.22267 47.9477 4.19539 48.0233 4.19281C48.4918 4.1423 48.9635 4.12604 49.4344 4.14415Z" fill="#88D4C0"/>
<path d="M58.2544 11.3338C57.929 11.3338 57.6051 11.3338 57.2812 11.3338C57.1291 11.3338 56.9938 11.3034 56.8493 11.2897C56.7809 11.2821 56.7109 11.2821 56.641 11.2791C56.4281 11.2669 56.2137 11.2624 56.0008 11.2593C55.5902 11.2593 55.1796 11.2593 54.769 11.2487C54.5471 11.2439 54.3259 11.2215 54.1075 11.1818C53.9448 11.1544 53.7791 11.1407 53.6133 11.1179C53.4502 11.0936 53.2854 11.0829 53.1206 11.086C52.8929 11.0829 52.6673 11.1291 52.4591 11.2213C52.3818 11.2611 52.3132 11.3158 52.2573 11.3824C52.2015 11.449 52.1594 11.5261 52.1337 11.6091C52.0622 11.8181 52.0207 12.0362 52.0105 12.2569C51.9968 12.462 51.9968 12.6677 52.0105 12.8728C52.0211 13.0598 52.0333 13.2453 52.0531 13.4309C52.0683 13.5616 52.0789 13.6909 52.0926 13.8217C52.1063 13.9525 52.1337 14.1106 52.1504 14.2551C52.1671 14.3995 52.1823 14.5501 52.2006 14.6976C52.2264 14.9014 52.2325 15.1051 52.2401 15.3059C52.2401 15.4686 52.2523 15.6313 52.2629 15.7955C52.2781 16.0601 52.2781 16.3262 52.2797 16.5924C52.2738 16.7173 52.2794 16.8425 52.2964 16.9664C52.303 17.0298 52.3324 17.0887 52.3791 17.132C52.4258 17.1754 52.4866 17.2003 52.5503 17.2022C52.6307 17.2105 52.7118 17.2105 52.7921 17.2022L53.7471 17.187C53.9463 17.187 54.1455 17.1869 54.3447 17.1641C54.4862 17.155 54.6276 17.1535 54.7675 17.1398C55.0269 17.1224 55.284 17.1979 55.4929 17.3527C55.6449 17.4515 55.797 17.5337 55.9612 17.6219C56.2198 17.7739 56.4798 17.9138 56.7429 18.0537C56.8727 18.1316 57.0073 18.2012 57.1459 18.2621C57.2356 18.294 57.2979 18.2529 57.2751 18.1602C57.2426 17.9809 57.1995 17.8036 57.1459 17.6295C57.1127 17.5283 57.0952 17.4227 57.0941 17.3162C57.0909 17.2802 57.1005 17.2441 57.1215 17.2146C57.1424 17.185 57.1731 17.1639 57.2082 17.155C57.3191 17.1247 57.4353 17.1184 57.5488 17.1368C57.7009 17.1535 57.853 17.1839 58.005 17.187C58.5677 17.1976 59.1303 17.1946 59.693 17.2052C59.8104 17.2139 59.9284 17.2042 60.0428 17.1763C60.0928 17.1668 60.1395 17.144 60.1777 17.1103C60.216 17.0766 60.2445 17.0332 60.2602 16.9847C60.2731 16.916 60.2699 16.8452 60.2511 16.7779C60.2252 16.6456 60.2115 16.5112 60.21 16.3764C60.21 16.1362 60.21 15.8959 60.21 15.6556C60.208 15.4919 60.1923 15.3286 60.1629 15.1675C60.1497 15.0793 60.1411 14.9905 60.137 14.9014C60.1157 14.4847 60.1203 14.0665 60.137 13.6483C60.137 13.3275 60.1462 13.0081 60.137 12.6873C60.1282 12.4467 60.1002 12.2072 60.0534 11.971C60.0374 11.8651 60.0161 11.76 59.9895 11.6562C59.9719 11.5828 59.9307 11.5171 59.8722 11.4693C59.8137 11.4215 59.7411 11.3942 59.6656 11.3916C59.1973 11.3381 58.7256 11.3188 58.2544 11.3338Z" fill="#88D4C0"/>
<path d="M18.6206 70.4251C18.5628 67.7639 18.4062 66.1262 17.8055 63.9455C17.544 62.9951 17.2353 62.9647 16.3092 62.8673L15.631 62.8111C15.5861 62.4347 15.4962 62.0651 15.3633 61.7101C15.0029 60.7627 14.1589 59.5964 12.1866 59.4291C10.7952 59.3074 9.66229 59.7895 8.90803 60.822C8.61192 61.24 8.38308 61.7018 8.2298 62.1906C7.92566 62.1815 7.76447 62.1906 7.45121 62.1617C6.69087 62.107 6.10237 62.5343 5.66593 63.5152C5.05092 64.9201 4.54258 66.3693 4.14525 67.8506C3.90042 68.7934 3.78789 70.086 4.89038 70.2259C5.82408 70.4373 8.42597 70.7384 9.39008 70.8007C10.3542 70.8631 11.9874 70.9893 12.9363 71.0745C13.6967 71.1414 16.5327 71.3664 17.287 71.4121C17.9211 71.4501 18.6389 71.2646 18.6206 70.4251ZM10.0166 62.3062C9.77329 62.2971 9.51326 62.2804 9.25626 62.2606C9.76113 60.9087 10.7176 60.2837 12.106 60.4069C13.2693 60.5072 14.0525 61.0562 14.4357 62.034C14.5215 62.2584 14.5852 62.4907 14.6258 62.7274C14.4737 62.7138 14.3597 62.7016 14.3217 62.6955L10.0166 62.3062Z" fill="#88D4C0"/>
<path d="M45.1635 93.1274C45.0707 92.367 45.0433 92.0127 44.6738 92.0386C43.9408 92.0903 42.4536 92.6909 41.3055 93.1988C41.2903 93.0346 41.2751 92.8704 41.2599 92.7016C41.1458 91.4607 40.7215 91.4379 39.9278 91.485C39.8274 91.485 38.3736 91.6067 38.2276 91.6052L34.5537 91.85C34.0853 91.9093 33.5394 91.9397 33.0786 91.9884C32.7973 92.0218 32.2392 92.1404 31.9579 92.1663C30.8934 92.2575 31.1352 93.1091 31.1412 94.0595C31.1549 94.4549 31.1777 95.2457 31.2112 95.6395C31.2416 96.003 31.3192 97.0903 31.3557 97.4537C31.4484 98.3144 31.3557 99.4671 32.3046 99.4306C33.2644 99.4843 34.2268 99.4711 35.1847 99.3911C35.9937 99.3241 37.3973 99.201 38.2079 99.1462C38.8511 99.1021 39.9977 99.0018 40.641 98.9379C41.1762 98.8847 41.6659 98.6338 41.6248 97.8901L41.5838 97.1496C42.8186 97.5237 44.4168 97.951 45.13 97.9008C45.533 97.8734 45.3961 96.7633 45.4007 96.482C45.4021 95.3595 45.3228 94.2384 45.1635 93.1274Z" fill="#88D4C0"/>
<path d="M39.5583 87.0507C39.3219 86.8981 39.053 86.8032 38.7732 86.7739C38.4934 86.7446 38.2107 86.7816 37.9479 86.8819L32.9296 88.6793C32.635 88.7238 32.3684 88.879 32.1841 89.1132C31.9999 89.3475 31.9119 89.6431 31.9381 89.94C31.9372 90.1292 31.9877 90.3151 32.0841 90.4779C32.1805 90.6407 32.3192 90.7743 32.4856 90.8645C32.7203 90.9926 32.991 91.0392 33.255 90.9968L38.544 90.7155C38.7582 90.7256 38.9723 90.6931 39.1739 90.6197C39.3754 90.5464 39.5603 90.4337 39.7179 90.2882C40.5908 89.5142 40.8691 87.9098 39.5583 87.0507ZM33.6975 89.7985C33.6687 90.7611 32.4491 90.6532 32.4339 89.8928C32.3776 89.0215 33.7508 88.8922 33.6975 89.7985ZM34.1811 89.9506C34.1889 89.8911 34.1935 89.8312 34.1948 89.7712C34.2068 89.6131 34.1888 89.4541 34.1416 89.3028L36.6081 88.4086C36.5748 88.6568 36.595 88.9093 36.6674 89.1491C36.7398 89.3888 36.8627 89.6103 37.0278 89.7985L34.1811 89.9506ZM38.0558 89.3758C37.0552 88.5455 38.2353 87.4506 39.0047 87.9539C39.9917 88.5942 38.9758 90.1802 38.0558 89.3758Z" fill="#88D4C0"/>
<path d="M71.4703 100.327C71.2011 100.771 71.0704 100.847 71.046 100.858H71.0293C70.5366 100.907 68.7285 99.7493 68.5491 99.4315C68.5491 99.3721 68.5734 99.1516 68.9384 98.519C69.2212 98.7547 69.536 99.0011 69.8599 99.2444C70.2218 99.5136 70.7586 99.8998 71.265 100.201C71.335 100.249 71.4034 100.291 71.4703 100.327Z" fill="#88D4C0"/>
<path d="M72.0558 99.7191L71.9175 99.6522L71.8232 99.599L71.6711 99.5138L71.3259 99.2994C71.1328 99.1732 70.9245 99.0302 70.7085 98.8751L70.6583 98.8401L70.2995 98.5771L69.9953 98.3414C69.8691 98.2425 69.7475 98.1452 69.6304 98.0509L69.5863 98.0159C69.457 97.9095 69.3353 97.8076 69.2228 97.7118L69.086 97.5917C69.0388 97.5506 68.9947 97.5096 68.9521 97.47C68.8624 97.3879 68.7864 97.3179 68.7149 97.2389L68.6997 97.2221C68.6723 97.1932 68.648 97.1644 68.6161 97.1279L68.5887 97.0914C68.5821 97.0835 68.5764 97.0748 68.572 97.0655C68.5279 96.8937 68.7514 96.4147 69.5041 95.6072C69.6319 95.742 69.7921 95.8976 69.9847 96.074C70.3983 96.4527 70.9321 96.8952 71.4886 97.321L71.7928 97.546L72.0133 97.7072C72.0878 97.7635 72.1653 97.8167 72.2383 97.87L72.3691 97.9627L72.6413 98.1498L72.6596 98.1619C72.7843 98.2456 72.9029 98.3231 73.0154 98.3931L73.0884 98.4387C73.2405 98.5284 73.3667 98.606 73.4868 98.6713C72.8542 99.783 72.5318 99.8712 72.4664 99.8772C72.4301 99.8742 72.3943 99.8666 72.36 99.8544L72.3189 99.8408C72.2946 99.8408 72.2687 99.8225 72.2383 99.8103L72.2186 99.8012C72.1897 99.789 72.1577 99.7754 72.1182 99.7556L72.0817 99.7373L72.0558 99.7191Z" fill="#88D4C0"/>
<path d="M82.7916 93.8293C82.6882 94.7068 82.5118 95.1234 82.4236 95.1812C82.3755 95.2015 82.3238 95.2124 82.2716 95.2131C82.048 95.225 81.8238 95.2138 81.6025 95.1797C81.6025 95.1143 81.6146 95.0474 81.6192 94.9759C81.6534 94.4063 81.6585 93.8353 81.6344 93.2651C81.6207 92.8667 81.5964 92.4714 81.5645 92.1079C82.5103 92.2037 82.746 92.339 82.7947 92.3786C82.854 92.5048 82.8798 93.0827 82.7916 93.8293Z" fill="#88D4C0"/>
<path d="M80.8316 94.0389V94.1012C80.8316 94.1833 80.8316 94.2624 80.8316 94.3415L80.7936 95.0729C80.7936 95.1459 80.7799 95.2159 80.7723 95.2782L80.745 95.4531C80.7343 95.5109 80.7237 95.5641 80.71 95.6052C80.71 95.6204 80.7009 95.6356 80.6963 95.6538L80.6841 95.6888C80.6754 95.7127 80.6642 95.7357 80.6507 95.7572C80.6263 95.7861 80.5153 95.8865 80.1017 95.9276C79.8177 95.9491 79.5326 95.9491 79.2486 95.9276C79.2699 95.7496 79.2836 95.5246 79.2881 95.26V94.8403C79.2881 94.7855 79.2881 94.7293 79.2881 94.673L79.2471 93.7606L79.2334 93.569L79.2182 93.3774C79.1685 92.7248 79.0858 92.0751 78.9703 91.4309C78.9293 91.2165 78.8867 91.0249 78.8411 90.8561C78.9703 90.8378 79.0935 90.8242 79.2106 90.812C80.2644 90.7101 80.5092 90.8819 80.5564 90.9321V90.9473C80.5564 90.9473 80.5564 90.961 80.5655 90.9732L80.6309 91.2499L80.6552 91.402L80.7191 91.9069C80.7282 91.992 80.7373 92.0818 80.745 92.1715L80.7662 92.4482C80.7662 92.4984 80.7662 92.5501 80.7769 92.6003L80.8043 93.0778C80.8043 93.1402 80.8043 93.2025 80.8043 93.2648L80.8316 94.0389Z" fill="#88D4C0"/>
<path d="M78.4654 95.0626C78.4785 95.3898 78.4535 95.7174 78.3909 96.0389C78.3883 96.0481 78.3852 96.0573 78.3817 96.0662L78.3361 96.1104C78.289 96.156 78.2312 96.2062 78.1658 96.2624C77.4267 96.8798 76.0368 97.6979 74.3641 98.1374H74.3382C74.2935 98.129 74.2497 98.1162 74.2075 98.0994C74.1557 98.0807 74.1049 98.0594 74.0554 98.0355C72.9772 97.5276 70.5411 95.6024 69.9495 94.8573C69.9179 94.8202 69.8895 94.7805 69.8644 94.7387C69.8586 94.7302 69.854 94.721 69.8507 94.7113C69.8425 94.6893 69.8374 94.6663 69.8355 94.6429C69.8127 94.3509 70.0971 93.6712 70.789 92.8181C71.4505 91.9984 72.2519 91.2974 72.9331 90.9598C73.841 90.5192 74.8187 90.2403 75.8224 90.1356C76.0201 90.1158 76.2072 90.1067 76.382 90.1067C77.0846 90.1067 77.5986 90.2588 77.8328 90.5462L77.8449 90.5599C77.8716 90.5952 77.894 90.6334 77.9118 90.6739C77.9316 90.718 77.9529 90.7697 77.9727 90.826C78.2783 91.7171 78.4654 93.7852 78.4654 95.0626Z" fill="#88D4C0"/>
<path d="M96.0933 30.5684C96.0654 30.5701 96.0376 30.5626 96.0143 30.5471C95.9855 30.5279 95.9655 30.498 95.9586 30.4641C95.9518 30.4302 95.9587 30.395 95.9778 30.3661C96.0859 30.1993 96.1632 30.0144 96.2059 29.8202C96.2083 29.8021 96.2144 29.7848 96.2238 29.7693C96.2333 29.7537 96.2459 29.7403 96.2608 29.73C96.2758 29.7196 96.2927 29.7124 96.3106 29.7089C96.3284 29.7055 96.3468 29.7058 96.3645 29.7098C96.3823 29.7138 96.399 29.7215 96.4136 29.7324C96.4282 29.7432 96.4403 29.757 96.4493 29.7728C96.4583 29.7887 96.4638 29.8062 96.4656 29.8243C96.4675 29.8424 96.4655 29.8607 96.4598 29.878C96.4101 30.1029 96.3205 30.3172 96.1952 30.5106C96.1841 30.5276 96.169 30.5418 96.1513 30.5518C96.1336 30.5619 96.1137 30.5675 96.0933 30.5684Z" fill="#88D4C0"/>
<path d="M96.3987 29.3627C96.3641 29.3631 96.3308 29.35 96.3058 29.3261C96.2807 29.3022 96.2661 29.2695 96.2649 29.235C96.2672 29.027 96.2268 28.8208 96.1462 28.6291C96.0657 28.4374 95.9467 28.2642 95.7965 28.1203C95.5115 27.866 95.1484 27.7164 94.767 27.696C94.7498 27.6949 94.733 27.6904 94.7176 27.6827C94.7022 27.675 94.6884 27.6644 94.6771 27.6514C94.6658 27.6384 94.6572 27.6233 94.6517 27.6069C94.6463 27.5906 94.6441 27.5733 94.6454 27.5561C94.6465 27.539 94.6511 27.5223 94.6587 27.5069C94.6664 27.4916 94.6771 27.4779 94.6901 27.4667C94.7031 27.4556 94.7183 27.4471 94.7346 27.4418C94.7509 27.4365 94.7682 27.4346 94.7853 27.436C95.6338 27.4938 96.5021 28.0717 96.5264 29.2289C96.5268 29.2461 96.5239 29.2632 96.5177 29.2792C96.5115 29.2952 96.5022 29.3098 96.4903 29.3223C96.4784 29.3347 96.4642 29.3447 96.4485 29.3516C96.4328 29.3585 96.4159 29.3623 96.3987 29.3627Z" fill="#88D4C0"/>
<path d="M84.9298 31.1981C84.9019 31.1994 84.8743 31.192 84.8508 31.1769C84.8217 31.1579 84.8014 31.1282 84.7943 31.0942C84.7872 31.0603 84.7938 31.0249 84.8128 30.9959C84.9209 30.8291 84.9982 30.6442 85.0409 30.45C85.0447 30.4332 85.0517 30.4173 85.0616 30.4033C85.0716 30.3892 85.0842 30.3773 85.0987 30.3681C85.1132 30.3589 85.1295 30.3527 85.1464 30.3498C85.1634 30.3469 85.1807 30.3473 85.1975 30.3511C85.2143 30.3549 85.2301 30.362 85.2442 30.3719C85.2582 30.3818 85.2702 30.3944 85.2793 30.409C85.2885 30.4235 85.2947 30.4397 85.2977 30.4567C85.3006 30.4736 85.3001 30.491 85.2963 30.5078C85.2483 30.7335 85.1603 30.9488 85.0363 31.1434C85.0245 31.1606 85.0085 31.1746 84.99 31.1842C84.9714 31.1938 84.9507 31.1985 84.9298 31.1981Z" fill="#88D4C0"/>
<path d="M85.234 29.9924C85.1996 29.9928 85.1664 29.9797 85.1416 29.9557C85.1169 29.9318 85.1025 29.8991 85.1017 29.8647C85.1038 29.6566 85.0632 29.4504 84.9824 29.2586C84.9016 29.0669 84.7822 28.8938 84.6318 28.75C84.3472 28.4952 83.9839 28.3455 83.6023 28.3258C83.5843 28.326 83.5663 28.3224 83.5497 28.3154C83.533 28.3083 83.518 28.2979 83.5056 28.2847C83.4932 28.2716 83.4837 28.256 83.4776 28.239C83.4715 28.222 83.469 28.2039 83.4703 28.1858C83.4716 28.1678 83.4766 28.1502 83.485 28.1342C83.4934 28.1182 83.505 28.1041 83.5191 28.0928C83.5332 28.0815 83.5495 28.0733 83.567 28.0686C83.5845 28.064 83.6027 28.063 83.6206 28.0657C84.4691 28.1235 85.3374 28.7014 85.3618 29.8586C85.3622 29.8758 85.3592 29.8929 85.353 29.9089C85.3468 29.9249 85.3375 29.9396 85.3256 29.952C85.3138 29.9644 85.2996 29.9744 85.2838 29.9813C85.2681 29.9883 85.2512 29.992 85.234 29.9924Z" fill="#88D4C0"/>
<path d="M97.3769 27.8922C97.2765 27.6869 96.3245 26.4658 96.1862 26.3C96.1862 26.3 95.3391 25.3511 95.0639 25.0302C94.7045 24.6121 94.2327 24.306 93.7044 24.1482C92.8711 23.8897 92.056 24.0768 91.2865 24.4919C90.5992 24.8614 89.9757 25.4363 89.7552 26.3167C89.4692 26.2222 89.1679 26.1824 88.8671 26.1996C88.5771 26.2147 88.2924 26.2838 88.0277 26.4034C87.2932 24.4798 85.4517 23.9277 83.9218 24.7763C83.4428 25.0424 82.9729 25.2644 82.6658 25.7298C82.6655 25.7338 82.6655 25.7379 82.6658 25.7419L82.6566 25.7541C82.6561 25.7586 82.6561 25.7632 82.6566 25.7678L82.6475 25.7799L82.6384 25.7921C82.6389 25.7967 82.6389 25.8012 82.6384 25.8058L82.6034 25.821C82.6037 25.825 82.6037 25.8291 82.6034 25.8332L82.5943 25.8469C82.5935 25.8509 82.5935 25.855 82.5943 25.859L82.5852 25.8712L82.576 25.8849C82.5758 25.8889 82.5758 25.893 82.576 25.897L82.5669 25.9092C82.5664 25.9137 82.5664 25.9183 82.5669 25.9229L82.5578 25.935L82.5487 25.9472C82.5467 25.9521 82.5442 25.9567 82.5411 25.9609L82.5319 25.9731C82.5298 25.9773 82.5272 25.9814 82.5243 25.9852L82.5152 25.9989C82.5147 26.003 82.5147 26.007 82.5152 26.0111L82.5061 26.0232L82.497 26.0369L82.4894 26.0491L82.4802 26.0613C82.4771 26.0655 82.4746 26.0701 82.4726 26.075L82.4635 26.0871L82.4544 26.0993C82.4549 26.1038 82.4549 26.1084 82.4544 26.113L82.4453 26.1251C82.4456 26.1292 82.4456 26.1332 82.4453 26.1373L82.4361 26.151C82.4331 26.1547 82.4305 26.1588 82.4285 26.1632L82.4194 26.1753L82.4103 26.189V26.2012L82.4012 26.2133C82.4007 26.2179 82.4007 26.2225 82.4012 26.227L82.392 26.2392L82.3829 26.2529V26.265L82.2993 26.2772V26.2909L82.2902 26.3031C82.2897 26.3071 82.2897 26.3112 82.2902 26.3152L82.281 26.3289L82.2719 26.3411L82.2643 26.3532L82.2552 26.3669C82.2544 26.3709 82.2544 26.3751 82.2552 26.3791L82.2461 26.3913L82.2369 26.4049L82.2293 26.4171L82.2202 26.4293L82.2126 26.443L82.2035 26.4551C82.2004 26.4588 82.1978 26.4629 82.1959 26.4673L82.1868 26.481L82.1776 26.4931V26.5053L82.1685 26.519C82.1651 26.5224 82.1625 26.5266 82.1609 26.5312L82.1518 26.5433L82.1426 26.557V26.5692L82.1335 26.5813V26.595L82.1244 26.6072V26.6194L82.1153 26.633L82.1062 26.6452C82.1069 26.6492 82.1069 26.6534 82.1062 26.6574L82.097 26.6711C82.0963 26.6751 82.0963 26.6792 82.097 26.6832L82.0879 26.6954L82.0788 26.7091L82.0712 26.7212L81.9951 26.7334V26.7471L81.986 26.7593V26.7714L81.9769 26.7851L81.9678 26.7973C81.9656 26.8015 81.963 26.8056 81.9602 26.8094L81.951 26.8231C81.9477 26.8266 81.9451 26.8307 81.9434 26.8353L81.9343 26.8475L81.9252 26.8611L81.9176 26.8733L81.9085 26.8855L81.9009 26.8992L81.8917 26.9113L81.8841 26.9235L81.875 26.9372L81.8659 26.9493C81.8662 26.9534 81.8662 26.9575 81.8659 26.9615L81.8568 26.9752C81.8537 26.9789 81.8511 26.983 81.8492 26.9874L81.84 26.9995L81.8309 27.0132C81.8314 27.0173 81.8314 27.0213 81.8309 27.0254L81.8218 27.0375V27.0512L81.8127 27.0634V27.0756L81.8035 27.0892L81.7944 27.1014C81.7947 27.1055 81.7947 27.1095 81.7944 27.1136L81.7853 27.1273C81.7848 27.1313 81.7848 27.1354 81.7853 27.1394L81.7762 27.1516L81.767 27.1653C81.7651 27.1697 81.7625 27.1738 81.7594 27.1774L81.691 27.1896V27.2033L81.6819 27.2155C81.6814 27.22 81.6814 27.2246 81.6819 27.2292L81.6728 27.2413L81.6636 27.2535L81.656 27.2672L81.6469 27.2793C81.6438 27.283 81.6413 27.2871 81.6393 27.2915L81.6302 27.3052L81.6211 27.3173C81.6215 27.3214 81.6215 27.3255 81.6211 27.3295L81.6119 27.3432C81.6091 27.347 81.6065 27.3511 81.6043 27.3554L81.5952 27.3675C81.5921 27.3718 81.5896 27.3764 81.5876 27.3812L81.5785 27.3934L81.5694 27.4056C81.5699 27.4101 81.5699 27.4147 81.5694 27.4192L81.5602 27.4314C81.5598 27.4354 81.5598 27.4395 81.5602 27.4436L81.5511 27.4573L81.542 27.4694C81.5424 27.4735 81.5424 27.4775 81.542 27.4816L81.5329 27.4953C81.5326 27.4993 81.5326 27.5034 81.5329 27.5074L81.5237 27.5196C81.5232 27.5242 81.5232 27.5287 81.5237 27.5333L81.5146 27.5455L81.5055 27.5576C81.506 27.5622 81.506 27.5668 81.5055 27.5713L81.4964 27.5835C81.4959 27.5875 81.4959 27.5916 81.4964 27.5956L81.4872 27.6093L81.4781 27.6215C81.4765 27.626 81.4739 27.6302 81.4705 27.6337L81.3869 27.6458C81.384 27.6497 81.3815 27.6537 81.3793 27.658L81.3701 27.6701C81.3696 27.6747 81.3696 27.6793 81.3701 27.6838L81.361 27.696L81.3519 27.7082C81.3499 27.713 81.3474 27.7176 81.3443 27.7219L81.3352 27.734L81.3276 27.7462L81.3184 27.7599L81.3093 27.772C81.3101 27.7761 81.3101 27.7802 81.3093 27.7842L81.3002 27.7979C81.2999 27.8019 81.2999 27.806 81.3002 27.81L81.2911 27.8222C81.288 27.8264 81.2854 27.831 81.2835 27.8359L81.2743 27.8481L81.2652 27.8602C81.2657 27.8648 81.2657 27.8694 81.2652 27.8739L81.2561 27.8861V27.8983L81.247 27.9119L81.2378 27.9241C81.2386 27.9281 81.2386 27.9322 81.2378 27.9363L81.2287 27.95V27.9621L81.2196 27.9743C81.2191 27.9788 81.2191 27.9834 81.2196 27.988L81.2105 28.0001L81.2014 28.0123C81.1994 28.0172 81.1968 28.0218 81.1937 28.026L81.1846 28.0382V28.0503L81.1755 28.064L81.1664 28.0762C81.1647 28.0807 81.1622 28.0849 81.1588 28.0883L81.0827 28.102L81.0751 28.1142L81.066 28.1264C81.0629 28.1306 81.0604 28.1352 81.0584 28.14L81.0493 28.1522L81.0402 28.1644C81.0382 28.1692 81.0356 28.1738 81.0325 28.1781L81.0234 28.1902L81.0158 28.2024L81.0067 28.2161L80.9976 28.2282C80.9981 28.2328 80.9981 28.2374 80.9976 28.2419C80.8741 28.4261 80.7749 28.6254 80.7026 28.835C80.5554 29.2553 80.5035 29.703 80.5505 30.1458C80.9018 33.9779 85.1795 33.6951 86.3139 31.3761L86.323 31.3639V31.3502L86.3321 31.338V31.3259L86.3413 31.3122L86.3504 31.3C86.352 31.2955 86.3546 31.2913 86.358 31.2879L86.3671 31.2742C86.3702 31.2705 86.3727 31.2664 86.3747 31.262L86.3838 31.2498L86.393 31.2361C86.3925 31.2321 86.3925 31.228 86.393 31.224L86.4021 31.2118L86.4097 31.1981L86.4188 31.186L86.4264 31.1738L86.4355 31.1601L86.4447 31.1479C86.4442 31.1434 86.4442 31.1388 86.4447 31.1343L86.4538 31.1221C86.4543 31.1181 86.4543 31.114 86.4538 31.1099L86.4629 31.0962L86.472 31.0841C86.4716 31.08 86.4716 31.076 86.472 31.0719L86.4812 31.0582C86.4814 31.0542 86.4814 31.0501 86.4812 31.0461L86.4903 31.0339C86.4908 31.0293 86.4908 31.0248 86.4903 31.0202L86.4994 31.008L86.5572 30.9913C86.5567 30.9868 86.5567 30.9822 86.5572 30.9776L86.5663 30.9655C86.5668 30.9614 86.5668 30.9573 86.5663 30.9533L86.5754 30.9396L86.5846 30.9274C86.5865 30.9231 86.5891 30.919 86.5922 30.9153L86.6013 30.9016C86.6042 30.8978 86.6067 30.8937 86.6089 30.8894L86.618 30.8773C86.6185 30.8727 86.6185 30.8681 86.618 30.8636L86.6271 30.8514L86.6363 30.8393C86.6382 30.8344 86.6408 30.8298 86.6439 30.8256L86.653 30.8134C86.6561 30.8097 86.6586 30.8056 86.6606 30.8012L86.6697 30.7875L86.6788 30.7754C86.6784 30.7713 86.6784 30.7673 86.6788 30.7632L86.688 30.7495C86.6908 30.7457 86.6934 30.7416 86.6956 30.7374L86.7047 30.7252C86.7078 30.721 86.7104 30.7164 86.7123 30.7115L86.7214 30.6993L86.7306 30.6872C86.73 30.6826 86.73 30.678 86.7306 30.6735L86.7397 30.6613V30.6492L86.7488 30.6355L86.7579 30.6233C86.7572 30.6193 86.7572 30.6152 86.7579 30.6111L86.767 30.5975C86.7673 30.5934 86.7673 30.5893 86.767 30.5853L86.7762 30.5731C86.7767 30.5686 86.7767 30.564 86.7762 30.5594L86.7853 30.5473L86.8613 30.5351C86.8608 30.5306 86.8608 30.526 86.8613 30.5214L86.8705 30.5093V30.4971L86.8796 30.4834L86.8887 30.4712C86.8903 30.4667 86.8929 30.4625 86.8963 30.4591L86.9054 30.4454L86.913 30.4332L86.9222 30.4211C86.9227 30.4165 86.9227 30.4119 86.9222 30.4074L86.9313 30.3952L86.9404 30.383C86.9424 30.3782 86.9449 30.3736 86.948 30.3694L86.9571 30.3572L86.9647 30.345L86.9739 30.3313L86.983 30.3192C86.9822 30.3152 86.9822 30.311 86.983 30.307L86.9921 30.2933V30.2812L87.0012 30.269C87.0043 30.2648 87.0069 30.2602 87.0088 30.2553L87.018 30.2431L87.0271 30.231C87.0266 30.2264 87.0266 30.2218 87.0271 30.2173L87.0362 30.2051V30.193L87.0453 30.1793L87.0545 30.1671C87.054 30.1626 87.054 30.158 87.0545 30.1534L87.0636 30.1413V30.1291L87.0727 30.1154C87.0734 30.1114 87.0734 30.1073 87.0727 30.1032L87.0818 30.0911L87.1655 30.0789L87.1731 30.0667L87.1822 30.0546C87.1827 30.05 87.1827 30.0454 87.1822 30.0409L87.1913 30.0287L87.2004 30.0166C87.2024 30.0117 87.2049 30.0071 87.208 30.0029L87.2172 29.9907L87.2248 29.9785L87.2339 29.9649C87.2373 29.9614 87.2399 29.9573 87.2415 29.9527L87.2506 29.9405L87.2597 29.9268V29.9147L87.2689 29.9025C87.272 29.8983 87.2745 29.8937 87.2765 29.8888L87.2856 29.8767L87.2947 29.8645C87.2942 29.8599 87.2942 29.8554 87.2947 29.8508L87.3038 29.8386V29.8265L87.313 29.8128C87.3137 29.8088 87.3137 29.8046 87.313 29.8006L87.3221 29.7885L87.3312 29.7748V29.7626L87.3403 29.7504C87.3408 29.7459 87.3408 29.7413 87.3403 29.7368L87.3495 29.7246L87.3586 29.7124C87.3605 29.7076 87.3631 29.703 87.3662 29.6987L87.3753 29.6866C87.375 29.6825 87.375 29.6785 87.3753 29.6744L87.3844 29.6607C87.3852 29.6567 87.3852 29.6526 87.3844 29.6486L87.3936 29.6364L87.4696 29.6227L87.4772 29.6105L87.4863 29.5984C87.4894 29.5941 87.492 29.5896 87.4939 29.5847L87.5031 29.5725L87.5122 29.5604C87.5141 29.5555 87.5167 29.5509 87.5198 29.5467L87.5289 29.5345C87.5311 29.5302 87.5336 29.5262 87.5365 29.5223L87.5456 29.5087C87.5487 29.505 87.5513 29.5009 87.5532 29.4965L87.5624 29.4843L87.5715 29.4706C87.571 29.4666 87.571 29.4625 87.5715 29.4585L87.5806 29.4463V29.4387C87.6445 29.3657 87.7038 29.2866 87.76 29.2136C88.1527 29.4253 88.5929 29.5331 89.0389 29.5269C89.4952 29.501 89.9696 29.2486 90.3194 29.0175C90.3955 29.1068 90.4773 29.1911 90.5642 29.2699V29.2775L90.5733 29.2882L90.584 29.3003L90.5931 29.3125L90.6037 29.3231L90.6128 29.3353L90.6235 29.3475L90.6326 29.3581L90.6433 29.3703L90.6524 29.3809L90.663 29.3931L90.6722 29.4052L90.6828 29.4159L90.6919 29.4281L90.7026 29.4402L90.7117 29.4509C90.7144 29.4556 90.718 29.4597 90.7223 29.463L90.7315 29.4752L90.7421 29.4858L90.7512 29.498L90.7619 29.5102L90.771 29.5208L90.7817 29.533L90.7908 29.5451L90.8014 29.5558L90.8105 29.568L90.8197 29.5801C90.8236 29.5833 90.8272 29.5869 90.8303 29.5908L90.8394 29.6029L90.8501 29.6151L90.8592 29.6257L90.8698 29.6379L90.879 29.6501L90.8896 29.6607L90.8987 29.6729C90.9031 29.6762 90.9067 29.6803 90.9094 29.6851L90.9185 29.6957L90.9292 29.7079L90.9383 29.72L90.9489 29.7307L90.958 29.7428L90.9687 29.755L90.9778 29.7656L90.9885 29.7778L90.9976 29.7885L91.0082 29.8006L91.0174 29.8128L91.028 29.8234L91.0371 29.8356L91.0478 29.8478L91.0569 29.8584C91.0596 29.8631 91.0632 29.8673 91.0675 29.8706L91.0767 29.8827C91.0798 29.8867 91.0834 29.8902 91.0873 29.8934L91.0964 29.9055L91.1071 29.9177L91.1162 29.9284L91.1268 29.9405L91.136 29.9527L91.1451 29.9633L91.1557 29.9755L91.1649 29.9877L91.1755 29.9983L91.1846 30.0105L91.1953 30.0226L91.2044 30.0333L91.215 30.0455L91.2242 30.0576L91.2348 30.0683L91.2439 30.0804L91.2546 30.0926L91.2637 30.1032L91.2744 30.1154L91.2835 30.1276L91.2941 30.1382L91.3032 30.1504L91.3139 30.1625L91.323 30.1732L91.3337 30.1854L91.3428 30.196L91.3534 30.2082L91.3625 30.2203L91.3732 30.231L91.3823 30.2431L91.393 30.2553L91.4021 30.266C91.4048 30.2707 91.4084 30.2748 91.4127 30.2781L91.4219 30.2903C91.425 30.2942 91.4286 30.2978 91.4325 30.3009L91.4416 30.3131L91.4523 30.3253L91.4614 30.3359L91.472 30.3481L91.4812 30.3602L91.4903 30.3709L91.5009 30.383L91.5101 30.3952L91.5207 30.4059L91.5298 30.418L91.5405 30.4302L91.5496 30.4408L91.5602 30.453L91.5694 30.4652L91.58 30.4758L91.5891 30.488L91.5998 30.5001L91.6089 30.5108L91.6195 30.523L91.6287 30.5351L91.6393 30.5458L91.6484 30.5579L91.6591 30.5701L91.6682 30.5807L91.6788 30.5929L91.688 30.6035L91.6986 30.6157L91.7077 30.6279C91.7109 30.6318 91.7145 30.6354 91.7184 30.6385L91.7275 30.6507L91.7382 30.6629L91.7473 30.6735C91.75 30.6782 91.7536 30.6824 91.7579 30.6857L91.7671 30.6978L91.7777 30.7085L91.7868 30.7206L91.7975 30.7328L91.8066 30.7434L91.8157 30.7556L91.8264 30.7678L91.8355 30.7784L91.8461 30.7906L91.8553 30.8028L91.8659 30.8134L91.875 30.8256L91.8857 30.8377L91.8948 30.8484L91.9054 30.8605L91.9146 30.8727L91.9252 30.8834L91.9343 30.8955L91.945 30.9077L91.9541 30.9183L91.9647 30.9305L91.9739 30.9427L91.9845 30.9533L91.9936 30.9655L92.0043 30.9776L92.0134 30.9883L92.024 31.0004L92.0332 31.0111C92.0359 31.0158 92.0395 31.0199 92.0438 31.0233L92.0529 31.0354L92.0621 31.0461C93.452 33.2237 97.7342 33.023 97.6521 29.1771C97.6543 28.734 97.5604 28.2956 97.3769 27.8922ZM86.0037 29.8447C86.0812 33.5202 81.1922 33.0458 81.1755 30.1397C81.0052 26.8094 85.9368 26.7228 86.0037 29.8447ZM97.0788 29.2212C97.1579 32.8967 92.2674 32.4147 92.2521 29.5163C92.0803 26.1844 97.0134 26.0978 97.0788 29.2212Z" fill="#88D4C0"/>
</svg>
